<?xml version="1.0" encoding="utf-8" ?>
<svg xmlns="http://www.w3.org/2000/svg" xmlns:xlink="http://www.w3.org/1999/xlink" width="777" height="415">
	<path fill="#0F0F10" d="M318.096 30.2809C323.038 31.5231 330.127 34.9383 333.533 38.6922C338.426 44.0835 341.542 58.2537 337.818 64.8574C337.052 66.2156 333.488 68.8089 333.182 69.7662C333.017 70.283 335.945 73.7526 336.4 74.3816C340.585 80.1661 341.079 95.3946 341.604 102.42C342.265 111.251 341.973 120.242 341.973 129.093L341.58 177.477C341.413 189.7 342.432 201.972 341.845 214.208C341.572 219.902 341.037 224.427 336.606 228.445C331.683 232.18 324.68 232.037 318.843 232.989C317.177 233.26 316.079 232.783 314.537 232.141C314.148 228.124 314.509 223.966 314.554 219.932C314.617 214.247 314.478 208.517 314.301 202.836C314.215 200.071 312.856 197.507 312.981 194.755C313.1 192.156 314.037 189.472 314.554 186.92C315.107 184.194 315.197 181.393 315.218 178.62C315.371 159.266 315.461 139.811 315.189 120.459C315.123 115.742 314.456 111.084 314.28 106.377C314.09 101.294 314.393 96.1758 314.367 91.0858C314.322 82.6017 313.209 38.5597 314.827 33.8441C315.437 32.0654 316.434 31.0876 318.096 30.2809ZM321.826 225.002C324.986 224.72 327.81 224.645 330.647 223.095C335.191 218.522 334.533 212.597 334.514 206.624Q334.068 172.803 334.388 138.981C334.394 121.646 335.726 102.18 332.282 85.2724C331.397 80.9287 329.752 77.9415 327.072 74.464C325.535 73.8228 323.579 73.4339 322.17 72.6512C322.021 76.2847 322.747 79.9651 322.8 83.6272C322.929 92.608 322.564 101.559 323.025 110.547C323.138 112.75 324.024 114.828 324.106 117.031C324.468 126.742 324.107 136.599 324.101 146.332C324.094 158.171 324.392 170.096 323.929 181.921C323.769 186.022 322.785 190.038 322.622 194.14C322.215 204.387 322.904 214.783 321.826 225.002ZM321.935 64.1945C324.687 63.4211 327.008 62.9372 329.114 60.8844C330.989 59.1656 331.955 57.906 332.103 55.2941C332.34 51.1046 330.259 46.822 327.503 43.7761C325.935 42.044 324.544 41.1751 322.422 40.2507C322.547 44.4094 323.122 48.565 322.943 52.7264C322.778 56.5595 321.928 60.3754 321.935 64.1945Z"/>
	<path fill="#0F0F10" d="M529.098 113.612C529.859 113.536 530.67 113.499 531.433 113.539C532.344 113.587 533.124 113.926 533.701 114.626C535.148 116.382 535.796 119.97 536.338 122.151C537.415 126.485 538.59 130.905 539.26 135.322C540.59 144.095 540.805 153.048 541.739 161.871C542.317 167.34 543.269 172.764 543.874 178.23C544.548 184.323 544.837 190.459 545.675 196.535C547.068 206.633 550.466 216.275 551.948 226.378C555.722 252.09 557.337 277.981 559.659 303.838C560.128 309.064 560.5 314.303 561.005 319.525C561.24 321.956 562.143 324.726 561.776 327.137C561.636 328.055 561.249 328.896 560.453 329.416C559.603 329.972 558.294 330.114 557.307 329.906C555.164 329.456 554.12 327.254 553.619 325.329C552.23 319.993 552.168 314.011 551.676 308.53C550.51 295.543 549.78 282.591 548.835 269.592C547.77 254.939 545.52 240.638 543.461 226.114C542.83 221.664 541.154 208.117 538.898 204.71C538.857 204.648 538.812 204.589 538.769 204.529C538.833 204.359 538.917 204.17 538.951 203.987C539.279 202.261 538.492 197.796 537.448 196.365C534.936 195.831 531.795 196.067 529.182 195.867C529.912 201.539 528.059 209.373 527.81 215.335C527.443 224.113 528.043 232.84 527.779 241.592C527.608 247.289 526.706 253.028 526.374 258.737C525.714 270.064 524.468 321.476 521.222 326.854C520.705 327.712 519.934 328.316 518.941 328.492C517.701 328.711 516.493 328.19 515.478 327.531C514.873 326.645 514.422 325.836 514.484 324.719C515.266 310.682 516.83 296.635 517.372 282.578L519.015 238.843C519.19 232.644 518.865 226.383 519.258 220.198C519.785 211.9 520.993 203.539 521.672 195.229Q524.802 158.027 526.242 120.721C526.342 117.399 526.63 115.95 529.098 113.612ZM529.374 188.456L534.093 188.603C535.247 188.57 535.878 188.775 536.755 187.988C536.521 180.88 534.412 173.516 533.423 166.458C533.183 164.752 533.308 158.131 532.522 157.309L532.233 157.226C532.006 164.356 531.893 182.76 529.374 188.456Z"/>
	<path fill="#0F0F10" d="M735.64 64.6775C737.247 64.378 738.619 64.1634 740.067 65.1099C740.274 65.4215 740.744 65.949 740.849 66.2833C741.481 68.3084 741.412 76.3738 741.451 79.0069C741.504 82.6304 740.994 86.26 740.863 89.8818C740.53 99.132 740.204 108.512 740.23 117.762C740.262 128.908 740.828 140.083 741.042 151.228C741.167 157.721 740.977 164.219 741.066 170.713C741.144 176.468 741.495 182.205 741.421 187.964C741.307 196.82 740.947 205.664 740.752 214.516C740.609 220.986 740.805 227.541 740.192 233.983C739.878 237.279 739.557 244.705 737.009 246.952C736.215 247.652 735.485 247.811 734.456 247.767C731.093 246.399 731.104 236.696 730.76 233.389C730.123 227.271 729.772 221.089 728.987 214.993C728.314 209.766 727.151 204.628 726.619 199.371C725.693 190.212 725.728 180.961 724.751 171.8C723.419 159.301 720.794 146.641 718.271 134.33C717.564 130.882 717.045 124.218 714.912 121.568C714.84 121.479 714.764 121.392 714.689 121.305C715.655 124.073 714.937 131.006 715.037 134.376C715.933 164.554 715.876 194.637 715.783 224.827C715.768 229.711 716.389 239.571 715.676 243.947C715.474 245.191 715.096 245.508 714.121 246.246L713.712 246.755C713.216 246.944 712.708 247.127 712.168 247.07C711.193 246.966 710.37 246.384 709.816 245.592C709.298 244.852 709.207 243.904 709.144 243.029C708.607 235.522 709.062 227.7 709.066 220.158L709.087 174.402Q709.223 156.703 708.225 139.031C707.996 134.747 707.312 130.49 707.172 126.202C706.919 118.477 707.673 110.732 707.433 102.997C707.178 94.8216 706.838 86.7001 706.771 78.5159C706.745 75.31 706.387 71.5479 707.084 68.4054C707.376 67.0903 707.853 66.3243 708.972 65.597C709.514 65.5441 710.131 65.4672 710.659 65.6375C711.924 66.0459 712.915 67.6007 713.33 68.8065C718.138 82.7742 718.652 98.1604 721.04 112.625L727.056 147.58C728.371 154.864 729.896 162.102 730.961 169.429C731.365 172.21 732.73 188.202 733.262 189.096C733.96 188.431 734.118 187.72 734.151 186.765C734.318 181.947 734.076 177.061 734.113 172.234C734.152 166.997 734.494 161.726 734.322 156.493C734.174 152.011 733.59 147.551 733.519 143.064C733.436 137.802 733.703 132.532 733.678 127.268C733.628 116.885 733.401 106.457 733.621 96.0756C733.702 92.3053 734.081 88.5432 734.177 84.7723C734.295 80.1518 733.311 68.2302 735.64 64.6775Z"/>
	<path fill="#0F0F10" d="M448.655 18.0182C452.707 17.9858 457.647 17.5369 461.525 18.8794C462.78 19.3139 463.642 19.9449 464.222 21.1664C464.773 22.3257 464.953 23.3662 464.526 24.6107C461.451 28.6912 450.318 26.5197 445.416 27.4407C442.547 27.9797 439.721 29.2373 438.039 31.719C436.603 33.8375 435.997 38.2326 436.525 40.6923C437.075 43.2627 438.546 46.0705 440.013 48.2054C447.039 58.4268 457.435 53.5579 466.709 59.502C471.49 62.566 473.722 67.1959 474.867 72.5717C477.933 86.9602 476.135 101.885 476.724 116.465C476.86 119.832 477.316 123.176 477.49 126.538C477.7 130.593 477.537 134.665 477.764 138.722C478.432 150.659 479.456 162.551 479.786 174.51Q480.511 202.567 477.594 230.481C476.68 239.2 476.34 249.648 471.31 257.184C469.052 260.566 465.671 262.795 461.68 263.558C452.137 265.38 440.569 261.661 432.76 256.249C432.547 255.403 431.742 254.536 431.328 253.733C430.507 252.143 429.941 250.268 429.578 248.515C429.057 245.998 429.158 241.704 430.665 239.533C431.528 238.292 433.027 237.22 434.554 237.038C435.582 236.915 436.779 237.147 437.58 237.849C439.052 239.138 439.029 242.628 439.215 244.448C439.513 247.367 440.119 249.801 442.527 251.706C446.143 254.565 453.681 255.592 458.191 255.089C460.714 254.808 462.877 253.672 464.447 251.657C468.92 245.916 468.019 229.843 468.348 222.522C468.637 216.103 469.705 209.633 470.106 203.195C470.73 193.195 470.581 182.716 470.312 172.7C470.102 164.905 469.068 157.092 468.392 149.328C468.067 145.588 468.299 141.829 468.087 138.085C467.893 134.651 467.358 131.241 467.258 127.799C466.76 110.613 468.53 92.9227 466.298 75.8226C466.002 73.5569 465.151 71.7099 463.783 69.8829C457.839 61.9482 447.169 66.4586 438.257 59.4737C432.833 55.2231 427.586 47.0698 426.816 40.1938Q426.714 39.2369 426.706 38.2746Q426.699 37.3122 426.786 36.3539Q426.873 35.3955 427.054 34.4503Q427.235 33.5051 427.508 32.5822Q427.781 31.6594 428.143 30.7679Q428.506 29.8763 428.954 29.0247Q429.402 28.1731 429.932 27.3697Q430.462 26.5663 431.068 25.8188C435.859 19.8336 441.522 18.8171 448.655 18.0182Z"/>
	<path fill="#0F0F10" d="M71.5232 76.4098C73.6841 76.3801 76.4358 76.0674 78.4012 77.0691C79.3658 77.5607 79.9883 78.1459 80.3124 79.192C80.468 79.6942 80.2611 80.511 79.9874 80.9435C77.8646 84.2974 67.3326 82.9594 63.4237 83.6178C62.58 84.4848 61.7069 85.3679 61.0539 86.3918C58.7497 90.0045 58.5044 95.3533 58.2047 99.5201C57.7425 105.949 58.2146 112.482 58.0995 118.93Q57.5344 149.404 57.9284 179.881L58.0124 207.221C58.0164 216.373 57.507 226.009 59.5191 234.987C60.2168 238.1 61.1848 242.523 64.1127 244.289C66.7079 245.854 72.8758 245.87 75.7711 245.207C77.9349 244.712 79.7006 243.715 80.8735 241.78C83.4644 237.506 83.5637 216.699 82.1719 211.496C81.8379 210.248 81.446 209.275 80.2733 208.596C75.6021 208.066 73.1651 215.572 69.2938 217.22C68.4107 217.596 68.0253 217.527 67.1954 217.183C66.4492 216.319 65.9283 215.291 65.9382 214.124C65.9584 211.752 68.55 206.157 70.256 204.495C70.3307 204.422 70.4068 204.351 70.4822 204.279Q71.4611 203.927 72.4679 203.666C76.3625 202.66 81.0325 202.343 84.5784 204.54C87.8259 206.552 89.6405 210.131 90.4143 213.776C92.0755 221.602 90.901 240.051 86.4681 246.579C84.3271 249.732 80.0932 250.99 76.5196 251.602C70.1167 252.7 63.6019 252.055 58.1786 248.133C57.2579 247.467 56.2209 246.561 55.6693 245.549C53.5187 241.604 51.761 230.778 50.942 225.898C49.52 217.425 50.0817 208.564 50.105 199.988L50.1911 161.844L50.1386 125.58C50.0767 116.992 49.5254 108.228 50.5214 99.6797C51.36 92.482 52.8905 85.2201 57.1612 79.2388C61.7353 76.8987 66.4916 76.6558 71.5232 76.4098Z"/>
	<path fill="#0F0F10" d="M133.797 28.44C134.006 28.3837 134.059 28.3549 134.306 28.3713C135.223 28.4319 136.29 28.9254 136.814 29.6933C139.431 33.5305 138.593 45.6617 138.542 50.3166C138.463 57.5271 138.966 64.6074 139.227 71.801C139.526 80.0298 139.638 88.31 139.672 96.544C139.708 105.359 139.826 114.288 139.524 123.089C139.331 128.725 138.724 134.312 138.653 139.964C138.464 154.902 138.795 169.904 138.783 184.851C138.773 197 138.324 209.339 138.844 221.468C138.894 222.643 138.872 225.099 139.653 225.96C142.513 229.111 162.113 228.404 166.96 228.331C167.636 229.583 168.337 230.822 169.028 232.065Q168.738 232.54 168.436 233.008C167.293 234.787 166.678 235.052 164.699 235.481C158.502 236.005 142.748 236.931 137.398 234.685C135.068 233.707 133.551 231.91 132.615 229.596C131.848 227.701 131.507 225.641 131.346 223.611C130.819 216.971 131.236 210.031 131.239 203.355C131.246 187.961 131.489 172.516 131.203 157.128C131.075 150.261 130.005 143.5 130.143 136.599C130.212 133.111 130.815 129.639 131.057 126.159C131.324 122.324 131.21 118.463 131.397 114.623C131.677 108.907 132.271 103.246 132.014 97.5141C131.853 93.9001 131.406 90.2899 131.32 86.6766C131.203 81.7901 131.436 76.8936 131.189 72.0096C130.999 68.2391 130.353 64.4996 130.274 60.722C130.127 53.6243 130.516 46.5231 130.474 39.4269C130.458 36.7791 129.329 33.0527 130.522 30.618C131.184 29.2685 132.483 28.9247 133.797 28.44Z"/>
	<path fill="#0F0F10" d="M605.718 58.608C607.007 58.4322 608.891 57.9945 610.129 58.4047C613.198 59.422 613.02 65.3155 613.245 68.0223C613.841 75.1586 613.036 82.2468 613.204 89.3931C613.567 104.895 614.481 120.308 614.363 135.831C614.284 146.182 613.337 156.513 613.137 166.859C613.011 173.387 613.468 179.955 613.536 186.49L613.578 224.866C613.576 228.418 612.93 251.411 613.877 253.167C616.888 258.753 636.551 255.179 640.2 256.653C641.052 256.997 641.691 257.635 641.984 258.514C642.28 259.403 642.154 260.465 641.721 261.289C641.15 262.378 640.385 262.55 639.331 262.896C639.171 262.96 639.108 262.992 638.919 263.024C633.108 264.007 615.134 264.305 610.506 261.309C608.071 259.733 607.349 257.702 606.793 254.943C605.642 249.237 606.055 242.91 606.057 237.1L606.081 212.977C606.093 204.02 606.281 195.02 606.063 186.066C605.988 182.967 605.558 179.887 605.422 176.789C605.24 172.666 605.343 168.476 605.377 164.349C605.421 159.053 606.192 153.799 606.339 148.509C606.533 141.54 606.098 134.529 606.09 127.553C606.082 120.712 606.507 113.874 606.359 107.036C606.234 101.292 605.671 95.5765 605.519 89.839C605.369 84.1658 605.64 78.4652 605.404 72.7981C605.254 69.1961 604.408 65.5702 604.373 61.9821C604.366 61.2351 604.555 60.6248 604.902 59.9617C605.146 59.4935 605.426 59.0482 605.718 58.608Z"/>
	<path fill="#0F0F10" d="M223.692 48.7924C227.698 48.1638 233.304 48.6654 237.326 49.4204C239.027 49.7397 240.566 50.2324 241.569 51.7319C241.707 52.7135 241.616 52.9205 241.233 53.8476L240.9 53.1448L241.047 54.1029C240.896 54.2628 240.744 54.4218 240.587 54.5758C238.16 56.9595 225.524 55.7754 221.586 55.7496C221.37 64.7363 222.023 73.7643 221.971 82.7649C226.056 82.6123 234.659 82.0231 238.4 83.3285C239.562 83.7339 240.847 84.7992 241.286 85.9566C241.657 86.9326 241.479 87.3707 241.127 88.2761C238.876 90.5746 225.979 89.4124 222.165 89.4633C222.724 99.9619 222.604 110.45 222.637 120.959L222.56 168.139C222.447 182.871 223.096 197.75 222.312 212.45C222.208 214.402 221.895 217.229 223.243 218.73L224.886 218.784C229.563 218.968 238.694 218.39 242.406 219.064C243.553 219.272 244.779 219.729 245.425 220.761C245.858 221.455 245.902 222.201 245.731 222.98C245.589 223.634 245.412 224.31 244.807 224.672C240.809 227.07 228.76 225.484 223.818 225.453C222.137 225.442 219.681 226.008 218.117 225.53C217.215 225.253 216.659 224.73 216.294 223.866C215.656 222.355 216.142 203.156 216.084 199.741C216.02 195.918 215.435 192.097 215.441 188.286C215.447 184.733 216.018 181.188 216.03 177.631C216.044 173.368 215.356 169.091 215.214 164.824C214.94 156.576 215.091 148.257 215.137 140.004C215.165 134.92 215.812 129.957 216.03 124.895C216.345 117.601 216.272 110.096 216.107 102.798C216.009 98.467 215.596 94.1477 215.453 89.8188C215.259 83.9527 215.322 78.076 215.032 72.2128C214.835 68.2359 214.163 64.2864 214.187 60.2984C214.206 57.1891 214.395 53.5274 215.594 50.6355C217.432 48.856 221.27 49.0097 223.692 48.7924Z"/>
	<path fill="#0F0F10" d="M671.483 152.305C672.737 152.211 673.737 152.204 674.965 152.503C676.254 153.368 676.616 154.794 676.913 156.238C678.397 163.444 676.7 171.073 676.937 178.316C677.738 202.82 679.136 227.316 679.782 251.826C680.312 271.898 679.926 292.038 679.901 312.115Q679.953 325.117 679.793 338.119C679.764 341.442 680.046 344.816 679.822 348.129C679.737 349.385 679.538 351.158 678.759 352.191C677.93 353.289 676.951 353.483 675.683 353.631C674.786 353.612 673.408 353.173 672.722 352.588C672.182 352.129 672.061 351.695 671.995 351.001C671.57 346.506 672.126 338.531 672.106 333.666C672.027 314.29 672.777 294.958 672.569 275.58Q672.067 239.212 670.389 202.879C670.045 193.409 669.121 183.99 669.201 174.483C669.242 169.573 669.09 158.924 670.161 154.54C670.367 153.694 670.949 152.973 671.483 152.305Z"/>
	<path fill="#0F0F10" d="M754.95 244.865C756.034 244.711 756.981 244.611 758.079 244.725C758.962 245.208 759.646 245.836 760.076 246.76Q760.15 246.921 760.205 247.09Q760.26 247.258 760.297 247.431Q760.333 247.605 760.35 247.781Q760.367 247.958 760.365 248.135Q760.362 248.312 760.34 248.488Q760.318 248.664 760.277 248.836Q760.236 249.008 760.176 249.175Q760.116 249.342 760.038 249.501C759.517 250.588 758.876 250.96 757.789 251.351C757.709 251.361 757.628 251.377 757.547 251.381C756.304 251.432 754.57 250.933 753.74 249.981C753.163 249.318 753.006 248.407 753.084 247.553C753.196 246.325 754.09 245.624 754.95 244.865Z"/>
	<path fill="#F0ECF3" d="M374.897 261.104C377.745 260.75 380.871 260.663 383.586 261.636C384.344 262.491 384.139 262.966 384.11 264.068C382.219 264.029 377.304 263.34 375.67 262.518C374.994 262.178 375.053 261.767 374.897 261.104Z"/>
</svg>
